<svg width="20" height="21" viewBox="0 0 20 21" fill="none" xmlns="http://www.w3.org/2000/svg">
<path d="M6.66602 2.1665V4.6665" stroke="#7A767F" stroke-width="1.5" stroke-miterlimit="10" stroke-linecap="round" stroke-linejoin="round"/>
<path d="M13.334 2.1665V4.6665" stroke="#7A767F" stroke-width="1.5" stroke-miterlimit="10" stroke-linecap="round" stroke-linejoin="round"/>
<path d="M2.91602 8.07471H17.0827" stroke="#7A767F" stroke-width="1.5" stroke-miterlimit="10" stroke-linecap="round" stroke-linejoin="round"/>
<path d="M14.9993 19.6667C16.8403 19.6667 18.3327 18.1743 18.3327 16.3333C18.3327 14.4924 16.8403 13 14.9993 13C13.1584 13 11.666 14.4924 11.666 16.3333C11.666 18.1743 13.1584 19.6667 14.9993 19.6667Z" stroke="#7A767F" stroke-width="1.5" stroke-miterlimit="10" stroke-linecap="round" stroke-linejoin="round"/>
<path d="M16.2412 16.375H13.7578" stroke="#7A767F" stroke-width="1.25" stroke-miterlimit="10" stroke-linecap="round" stroke-linejoin="round"/>
<path d="M15 15.1582V17.6499" stroke="#7A767F" stroke-width="1.25" stroke-miterlimit="10" stroke-linecap="round" stroke-linejoin="round"/>
<path d="M17.5 7.58317V14.1332C16.8917 13.4415 16 12.9998 15 12.9998C13.1583 12.9998 11.6667 14.4915 11.6667 16.3332C11.6667 16.9582 11.8417 17.5498 12.15 18.0498C12.325 18.3498 12.55 18.6165 12.8083 18.8332H6.66667C3.75 18.8332 2.5 17.1665 2.5 14.6665V7.58317C2.5 5.08317 3.75 3.4165 6.66667 3.4165H13.3333C16.25 3.4165 17.5 5.08317 17.5 7.58317Z" stroke="#7A767F" stroke-width="1.5" stroke-miterlimit="10" stroke-linecap="round" stroke-linejoin="round"/>
<path d="M9.99607 11.9167H10.0036" stroke="#7A767F" stroke-width="1.66667" stroke-linecap="round" stroke-linejoin="round"/>
<path d="M6.91209 11.9167H6.91957" stroke="#7A767F" stroke-width="1.66667" stroke-linecap="round" stroke-linejoin="round"/>
<path d="M6.91209 14.4167H6.91957" stroke="#7A767F" stroke-width="1.66667" stroke-linecap="round" stroke-linejoin="round"/>
</svg>
