<svg width="20" height="21" viewBox="0 0 20 21" fill="none" xmlns="http://www.w3.org/2000/svg">
<path d="M6.66602 2.1665V4.6665" stroke="#7A767F" stroke-width="1.5" stroke-miterlimit="10" stroke-linecap="round" stroke-linejoin="round"/>
<path d="M13.334 2.1665V4.6665" stroke="#7A767F" stroke-width="1.5" stroke-miterlimit="10" stroke-linecap="round" stroke-linejoin="round"/>
<path d="M2.91602 8.07471H17.0827" stroke="#7A767F" stroke-width="1.5" stroke-miterlimit="10" stroke-linecap="round" stroke-linejoin="round"/>
<path d="M18.3327 16.3333C18.3327 16.9583 18.1577 17.55 17.8493 18.05C17.2743 19.0167 16.216 19.6667 14.9993 19.6667C14.1577 19.6667 13.391 19.3583 12.8077 18.8333C12.5494 18.6167 12.3244 18.35 12.1494 18.05C11.841 17.55 11.666 16.9583 11.666 16.3333C11.666 14.4917 13.1577 13 14.9993 13C15.9993 13 16.891 13.4417 17.4994 14.1333C18.016 14.725 18.3327 15.4917 18.3327 16.3333Z" stroke="#7A767F" stroke-width="1.5" stroke-miterlimit="10" stroke-linecap="round" stroke-linejoin="round"/>
<path d="M13.6992 16.3328L14.5242 17.1578L16.2992 15.5161" stroke="#7A767F" stroke-width="1.25" stroke-linecap="round" stroke-linejoin="round"/>
<path d="M17.5 7.58317V14.1332C16.8917 13.4415 16 12.9998 15 12.9998C13.1583 12.9998 11.6667 14.4915 11.6667 16.3332C11.6667 16.9582 11.8417 17.5498 12.15 18.0498C12.325 18.3498 12.55 18.6165 12.8083 18.8332H6.66667C3.75 18.8332 2.5 17.1665 2.5 14.6665V7.58317C2.5 5.08317 3.75 3.4165 6.66667 3.4165H13.3333C16.25 3.4165 17.5 5.08317 17.5 7.58317Z" stroke="#7A767F" stroke-width="1.5" stroke-miterlimit="10" stroke-linecap="round" stroke-linejoin="round"/>
<path d="M9.99607 11.9167H10.0036" stroke="#7A767F" stroke-width="1.66667" stroke-linecap="round" stroke-linejoin="round"/>
<path d="M6.91209 11.9167H6.91957" stroke="#7A767F" stroke-width="1.66667" stroke-linecap="round" stroke-linejoin="round"/>
<path d="M6.91209 14.4167H6.91957" stroke="#7A767F" stroke-width="1.66667" stroke-linecap="round" stroke-linejoin="round"/>
</svg>
