<svg width="16" height="14" viewBox="0 0 16 14" fill="none" xmlns="http://www.w3.org/2000/svg">
<path d="M14.8996 3.41387V5.68262H1.09961V1.63262C1.09961 1.06387 1.60898 0.604492 2.23711 0.604492H5.48086C5.86211 0.604492 6.22148 0.779492 6.43086 1.06699L7.10898 1.99512C7.28711 2.23887 7.58711 2.38574 7.90898 2.38574H13.759C14.3902 2.38574 14.8996 2.84512 14.8996 3.41387Z" fill="url(#paint0_linear_7771_16748)"/>
<path d="M3.03711 3.52637H12.9621C13.2559 3.52637 13.4934 3.76387 13.4934 4.05762V6.37324C13.4934 6.66699 13.2559 6.90449 12.9621 6.90449H3.03711C2.74336 6.90449 2.50586 6.66699 2.50586 6.37324V4.05762C2.50586 3.76387 2.74336 3.52637 3.03711 3.52637Z" fill="white"/>
<path d="M14.1562 13.4358H1.84366C1.38741 13.4358 0.993664 13.1171 0.896789 12.6702L0.0217892 6.25146C-0.0907108 5.72959 0.243664 5.21397 0.765539 5.10147C0.831164 5.08584 0.899914 5.07959 0.968664 5.07959H15.0312C15.5655 5.07959 15.9999 5.51396 15.9999 6.04834C15.9999 6.11709 15.9937 6.18271 15.978 6.25146L15.103 12.6702C15.0062 13.1171 14.6124 13.4358 14.1562 13.4358Z" fill="url(#paint1_linear_7771_16748)"/>
<defs>
<linearGradient id="paint0_linear_7771_16748" x1="7.99954" y1="0.568414" x2="7.99954" y2="5.58197" gradientUnits="userSpaceOnUse">
<stop offset="0.363391" stop-color="#B691F2"/>
<stop offset="1" stop-color="#6F3AC6"/>
</linearGradient>
<linearGradient id="paint1_linear_7771_16748" x1="7.99988" y1="5.02022" x2="7.99988" y2="13.2702" gradientUnits="userSpaceOnUse">
<stop offset="0.363391" stop-color="#B691F2"/>
<stop offset="1" stop-color="#6F3AC6"/>
</linearGradient>
</defs>
</svg>
