<svg width="23" height="23" viewBox="0 0 23 23" fill="none" xmlns="http://www.w3.org/2000/svg">
<path d="M13.4426 1.80296C14.2858 1.23997 14.7081 0.958473 15.1665 1.00496C15.6261 1.05015 15.9838 1.40783 16.7005 2.12448L20.1636 5.58765C20.8803 6.3043 21.238 6.66199 21.2832 7.12168C21.3297 7.58137 21.0482 8.00232 20.4865 8.84551L18.3559 12.0388C17.6315 13.1273 17.2686 13.671 16.9794 14.252C16.7649 14.6824 16.5806 15.1273 16.428 15.5833C16.2214 16.1993 16.0923 16.841 15.8366 18.1232L15.5913 19.3564L15.5887 19.3641C15.5463 19.5733 15.4527 19.7687 15.3162 19.9329C15.1798 20.097 15.0048 20.2248 14.8069 20.3048C14.609 20.3847 14.3943 20.4144 14.1822 20.391C13.97 20.3677 13.7669 20.2922 13.5911 20.1712L13.5847 20.166L13.5498 20.1428C9.08398 17.048 5.21282 13.1734 2.12211 8.70476L2.11694 8.69702C1.99593 8.52119 1.92039 8.31811 1.89708 8.10594C1.87377 7.89378 1.90342 7.67914 1.98338 7.48124C2.06333 7.28333 2.1911 7.10834 2.35524 6.9719C2.51939 6.83547 2.7148 6.74185 2.92398 6.69943L2.93173 6.69814L4.16489 6.45151C5.44711 6.19455 6.08887 6.06671 6.7048 5.86011C7.16042 5.70749 7.60484 5.52325 8.0348 5.30874C8.61587 5.0195 9.16079 4.65665 10.2493 3.93096L13.4426 1.80296Z" stroke="black" stroke-width="1.5"/>
<path d="M1 21.2882L6.81069 15.4775" stroke="black" stroke-width="1.5" stroke-linecap="round"/>
</svg>
